<svg height="512" viewBox="0 0 128 128" width="512" xmlns="http://www.w3.org/2000/svg"><g><g><path d="m64 16.38v-12.963l16.92 6.481z" fill="#8cd96b"/><path d="m64 26.756a1.749 1.749 0 0 1 -1.75-1.75v-23.256a1.75 1.75 0 0 1 3.5 0v23.256a1.749 1.749 0 0 1 -1.75 1.75z" fill="#4f4c5f"/><path d="m1.75 46.765h124.5v11.492h-124.5z" fill="#4f4c5f"/><path d="m126.25 46.765s-36.917-5.25-62.25-26c-25.333 20.75-62.25 26-62.25 26z" fill="#8cd96b"/><g fill="#ffb400"><path d="m13.068 58.257h11.318a0 0 0 0 1 0 0v5.543a5.62 5.62 0 0 1 -5.62 5.62h-.079a5.62 5.62 0 0 1 -5.62-5.62v-5.543a0 0 0 0 1 .001 0z"/><path d="m35.7 58.257h11.323a0 0 0 0 1 0 0v5.543a5.62 5.62 0 0 1 -5.62 5.62h-.079a5.62 5.62 0 0 1 -5.624-5.62v-5.543a0 0 0 0 1 0 0z"/><path d="m58.341 58.257h11.318a0 0 0 0 1 0 0v5.543a5.62 5.62 0 0 1 -5.62 5.62h-.079a5.62 5.62 0 0 1 -5.62-5.62v-5.543a0 0 0 0 1 0 0z"/><path d="m80.977 58.257h11.323a0 0 0 0 1 0 0v5.543a5.62 5.62 0 0 1 -5.62 5.62h-.08a5.62 5.62 0 0 1 -5.62-5.62v-5.543a0 0 0 0 1 -.003 0z"/><path d="m103.614 58.257h11.318a0 0 0 0 1 0 0v5.543a5.62 5.62 0 0 1 -5.62 5.62h-.079a5.62 5.62 0 0 1 -5.62-5.62v-5.543a0 0 0 0 1 .001 0z"/></g><g fill="#ffe600"><path d="m1.75 58.257h11.318a0 0 0 0 1 0 0v5.543a5.62 5.62 0 0 1 -5.62 5.62h-.078a5.62 5.62 0 0 1 -5.62-5.62v-5.543a0 0 0 0 1 0 0z"/><path d="m24.386 58.257h11.314a0 0 0 0 1 0 0v5.543a5.62 5.62 0 0 1 -5.62 5.62h-.079a5.62 5.62 0 0 1 -5.62-5.62v-5.543a0 0 0 0 1 .005 0z"/><path d="m47.023 58.257h11.318a0 0 0 0 1 0 0v5.543a5.62 5.62 0 0 1 -5.62 5.62h-.079a5.62 5.62 0 0 1 -5.62-5.62v-5.543a0 0 0 0 1 .001 0z"/><path d="m69.659 58.257h11.318a0 0 0 0 1 0 0v5.543a5.62 5.62 0 0 1 -5.62 5.62h-.079a5.62 5.62 0 0 1 -5.62-5.62v-5.543a0 0 0 0 1 .001 0z"/><path d="m92.3 58.257h11.318a0 0 0 0 1 0 0v5.543a5.62 5.62 0 0 1 -5.62 5.62h-.079a5.62 5.62 0 0 1 -5.619-5.62v-5.543a0 0 0 0 1 0 0z"/><path d="m114.932 58.257h11.318a0 0 0 0 1 0 0v5.543a5.62 5.62 0 0 1 -5.62 5.62h-.079a5.62 5.62 0 0 1 -5.62-5.62v-5.543a0 0 0 0 1 .001 0z"/></g><path d="m5.75 118.5h14.636a4 4 0 0 1 4 4v3.751a0 0 0 0 1 0 0h-22.636a0 0 0 0 1 0 0v-3.751a4 4 0 0 1 4-4z" fill="#8cd96b"/><path d="m13.068 63.8a5.616 5.616 0 0 1 -3.068 5v49.7h6.136v-49.7a5.618 5.618 0 0 1 -3.068-5z" fill="#4f4c5f"/><path d="m103.614 118.5h22.636a0 0 0 0 1 0 0v3.751a4 4 0 0 1 -4 4h-14.636a4 4 0 0 1 -4-4v-3.751a0 0 0 0 1 0 0z" fill="#8cd96b" transform="matrix(-1 0 0 -1 229.864 244.749)"/><path d="m114.932 63.8a5.616 5.616 0 0 0 3.068 5v49.7h-6.136v-49.7a5.618 5.618 0 0 0 3.068-5z" fill="#4f4c5f"/></g><g><path d="m128 46.712a1.774 1.774 0 0 0 -1.5-1.679c-.365-.051-36.1-5.333-60.75-25.115v-2.335l15.8-6.051a1.749 1.749 0 0 0 0-3.267l-15.8-6.051v-.464a1.75 1.75 0 0 0 -3.5 0v18.165a94.96 94.96 0 0 1 -11.563 7.906 1.75 1.75 0 0 0 1.763 3.024 99.228 99.228 0 0 0 11.55-7.832c14.923 11.822 33.239 18.479 46.091 22h-92.269a163.737 163.737 0 0 0 18.546-6.3 1.75 1.75 0 0 0 -1.326-3.239 158.861 158.861 0 0 1 -33.542 9.559 1.783 1.783 0 0 0 -1.5 1.733v17.034a7.379 7.379 0 0 0 7.37 7.37h.078a7.334 7.334 0 0 0 .8-.046v45.626h-2.498a5.756 5.756 0 0 0 -5.75 5.75v3.751a1.749 1.749 0 0 0 1.75 1.749h22.637a1.749 1.749 0 0 0 1.75-1.75v-3.75a5.756 5.756 0 0 0 -5.75-5.75h-2.5v-45.627a7.3 7.3 0 0 0 .8.046h.08a7.352 7.352 0 0 0 5.619-2.614 7.354 7.354 0 0 0 5.62 2.614h.079a7.35 7.35 0 0 0 5.615-2.614 7.354 7.354 0 0 0 5.62 2.614h.08a7.354 7.354 0 0 0 5.62-2.614 7.354 7.354 0 0 0 5.62 2.614h.078a7.354 7.354 0 0 0 5.62-2.614 7.354 7.354 0 0 0 5.62 2.614h.078a7.354 7.354 0 0 0 5.62-2.614 7.354 7.354 0 0 0 5.62 2.614h.078a7.354 7.354 0 0 0 5.62-2.614 7.354 7.354 0 0 0 5.62 2.614h.079a7.354 7.354 0 0 0 5.62-2.614 7.35 7.35 0 0 0 5.619 2.614h.079a7.354 7.354 0 0 0 5.62-2.614 7.352 7.352 0 0 0 5.619 2.614h.079a7.3 7.3 0 0 0 .8-.046v11.752a1.75 1.75 0 0 0 3.5 0v-13.1a7.424 7.424 0 0 0 1.319-1.216 7.384 7.384 0 0 0 1.318 1.216v46.978h-2.637v-10.253a1.75 1.75 0 0 0 -3.5 0v10.249h-2.5a5.756 5.756 0 0 0 -5.75 5.75v3.751a1.749 1.749 0 0 0 1.75 1.75h22.641a1.749 1.749 0 0 0 1.75-1.75v-3.75a5.756 5.756 0 0 0 -5.75-5.75h-2.5v-45.627a7.334 7.334 0 0 0 .8.046h.078a7.379 7.379 0 0 0 7.372-7.369v-17.034c0-.019 0-.036 0-.054zm-3.5 75.788v2h-19.137v-2a2.253 2.253 0 0 1 2.25-2.25h14.637a2.253 2.253 0 0 1 2.25 2.25zm-121-65.993v-7.991h121v7.991zm72.527-46.607-10.277 3.936v-7.875zm-68.657 57.769a3.874 3.874 0 0 1 -3.87-3.869v-3.793h7.818v3.793a3.874 3.874 0 0 1 -3.87 3.87zm15.267 54.831v2h-19.137v-2a2.253 2.253 0 0 1 2.25-2.25h14.637a2.253 2.253 0 0 1 2.25 2.25zm-8.25-5.75h-2.637v-46.979a7.384 7.384 0 0 0 1.318-1.216 7.424 7.424 0 0 0 1.319 1.216zm4.38-49.08h-.08a3.874 3.874 0 0 1 -3.869-3.87v-3.793h7.819v3.793a3.875 3.875 0 0 1 -3.87 3.869zm11.318 0h-.079a3.873 3.873 0 0 1 -3.869-3.87v-3.793h7.817v3.793a3.873 3.873 0 0 1 -3.869 3.869zm11.318 0h-.079a3.874 3.874 0 0 1 -3.87-3.87v-3.793h7.818v3.793a3.873 3.873 0 0 1 -3.872 3.869zm11.318 0h-.078a3.875 3.875 0 0 1 -3.871-3.87v-3.793h7.819v3.793a3.875 3.875 0 0 1 -3.87 3.869zm11.318 0h-.078a3.874 3.874 0 0 1 -3.87-3.87v-3.793h7.818v3.793a3.874 3.874 0 0 1 -3.87 3.869zm11.318 0h-.078a3.875 3.875 0 0 1 -3.87-3.87v-3.793h7.819v3.793a3.875 3.875 0 0 1 -3.871 3.869zm11.319 0h-.076a3.873 3.873 0 0 1 -3.869-3.87v-3.793h7.818v3.793a3.874 3.874 0 0 1 -3.873 3.869zm11.318 0h-.079a3.873 3.873 0 0 1 -3.869-3.87v-3.793h7.817v3.793a3.873 3.873 0 0 1 -3.869 3.869zm11.318 0h-.079a3.875 3.875 0 0 1 -3.87-3.87v-3.793h7.819v3.793a3.874 3.874 0 0 1 -3.87 3.869zm15.188-3.87a3.874 3.874 0 0 1 -3.87 3.87h-.078a3.874 3.874 0 0 1 -3.87-3.87v-3.793h7.818z"/><path d="m111.863 98.5a1.749 1.749 0 0 0 1.75-1.75v-4.125a1.75 1.75 0 0 0 -3.5 0v4.125a1.749 1.749 0 0 0 1.75 1.75z"/></g></g></svg>